<?xml version="1.0" encoding="UTF-8" standalone="no"?>
<svg xmlns:ffdec="https://www.free-decompiler.com/flash" xmlns:xlink="http://www.w3.org/1999/xlink" ffdec:objectType="shape" height="93.15px" width="141.1px" xmlns="http://www.w3.org/2000/svg">
  <g transform="matrix(1.0, 0.0, 0.0, 1.0, 0.0, 141.75)">
    <path d="M3.9 -131.75 Q3.9 -134.25 5.7 -136.05 7.5 -137.8 10.0 -137.8 L135.05 -137.8 Q137.55 -137.8 139.35 -136.05 141.1 -134.25 141.1 -131.75 L141.1 -72.25 Q141.1 -69.75 139.35 -67.95 137.55 -66.15 135.05 -66.15 L79.0 -66.15 68.9 -48.8 66.5 -66.15 10.0 -66.15 Q7.5 -66.15 5.7 -67.95 3.9 -69.75 3.9 -72.25 L3.9 -131.75" fill="#453d28" fill-opacity="0.49803922" fill-rule="evenodd" stroke="none"/>
    <path d="M6.1 -140.25 L131.1 -140.25 Q133.0 -140.25 134.35 -138.9 135.7 -137.55 135.7 -135.65 L135.7 -76.15 Q135.7 -74.25 134.35 -72.9 133.0 -71.55 131.1 -71.55 L6.1 -71.55 Q4.2 -71.55 2.85 -72.9 1.5 -74.25 1.5 -76.15 L1.5 -135.65 Q1.5 -137.55 2.85 -138.9 4.2 -140.25 6.1 -140.25" fill="#f0e1c4" fill-rule="evenodd" stroke="none"/>
    <path d="M63.8 -73.0 L73.9 -73.0 68.9 -48.8 63.8 -73.0" fill="#f0e1c4" fill-rule="evenodd" stroke="none"/>
    <path d="M0.0 -135.65 Q0.0 -138.15 1.8 -139.95 3.6 -141.75 6.1 -141.75 L131.1 -141.75 Q133.6 -141.75 135.4 -139.95 137.2 -138.15 137.2 -135.65 L137.2 -76.15 Q137.2 -73.65 135.4 -71.85 133.6 -70.05 131.1 -70.05 L75.1 -70.05 68.9 -48.6 62.6 -70.05 6.1 -70.05 Q3.6 -70.05 1.8 -71.85 0.0 -73.65 0.0 -76.15 L0.0 -135.65 M6.1 -140.25 Q4.2 -140.25 2.85 -138.9 1.5 -137.55 1.5 -135.65 L1.5 -76.15 Q1.5 -74.25 2.85 -72.9 4.2 -71.55 6.1 -71.55 L63.95 -71.55 68.9 -48.8 73.75 -71.55 131.1 -71.55 Q133.0 -71.55 134.35 -72.9 135.7 -74.25 135.7 -76.15 L135.7 -135.65 Q135.7 -137.55 134.35 -138.9 133.0 -140.25 131.1 -140.25 L6.1 -140.25" fill="#453d28" fill-rule="evenodd" stroke="none"/>
    <path d="M73.75 -71.55 L75.1 -70.05 66.8 -71.6 73.75 -71.55" fill="#453d28" fill-rule="evenodd" stroke="none"/>
    <path d="M122.9 -120.7 L118.9 -120.7 118.9 -121.7 122.9 -121.7 122.9 -120.7 M114.9 -121.7 L114.9 -120.7 110.9 -120.7 110.9 -121.7 114.9 -121.7 M46.9 -121.7 L50.9 -121.7 50.9 -120.7 46.9 -120.7 46.9 -121.7 M42.9 -121.7 L42.9 -120.7 38.9 -120.7 38.9 -121.7 42.9 -121.7 M34.9 -121.7 L34.9 -120.7 30.9 -120.7 30.9 -121.7 34.9 -121.7 M66.9 -120.7 L62.9 -120.7 62.9 -121.7 66.9 -121.7 66.9 -120.7 M58.9 -120.7 L54.9 -120.7 54.9 -121.7 58.9 -121.7 58.9 -120.7 M82.9 -120.7 L78.9 -120.7 78.9 -121.7 82.9 -121.7 82.9 -120.7 M86.9 -121.7 L90.9 -121.7 90.9 -120.7 86.9 -120.7 86.9 -121.7 M74.9 -121.7 L74.9 -120.7 70.9 -120.7 70.9 -121.7 74.9 -121.7 M98.9 -120.7 L94.9 -120.7 94.9 -121.7 98.9 -121.7 98.9 -120.7 M106.9 -121.7 L106.9 -120.7 102.9 -120.7 102.9 -121.7 106.9 -121.7 M22.9 -120.7 L22.9 -121.7 26.9 -121.7 26.9 -120.7 22.9 -120.7 M18.9 -120.7 L14.9 -120.7 14.9 -121.7 18.9 -121.7 18.9 -120.7" fill="#c9aa75" fill-rule="evenodd" stroke="none"/>
    <path d="M102.9 -90.7 L106.9 -90.7 106.9 -89.7 102.9 -89.7 102.9 -90.7 M98.9 -89.7 L94.9 -89.7 94.9 -90.7 98.9 -90.7 98.9 -89.7 M90.9 -89.7 L86.9 -89.7 86.9 -90.7 90.9 -90.7 90.9 -89.7 M78.9 -89.7 L78.9 -90.7 82.9 -90.7 82.9 -89.7 78.9 -89.7 M74.9 -89.7 L70.9 -89.7 70.9 -90.7 74.9 -90.7 74.9 -89.7 M62.9 -90.7 L66.9 -90.7 66.9 -89.7 62.9 -89.7 62.9 -90.7 M58.9 -89.7 L54.9 -89.7 54.9 -90.7 58.9 -90.7 58.9 -89.7 M50.9 -89.7 L46.9 -89.7 46.9 -90.7 50.9 -90.7 50.9 -89.7 M38.9 -89.7 L38.9 -90.7 42.9 -90.7 42.9 -89.7 38.9 -89.7 M34.9 -89.7 L30.9 -89.7 30.9 -90.7 34.9 -90.7 34.9 -89.7 M122.9 -89.7 L118.9 -89.7 118.9 -90.7 122.9 -90.7 122.9 -89.7 M114.9 -89.7 L110.9 -89.7 110.9 -90.7 114.9 -90.7 114.9 -89.7 M22.9 -90.7 L26.9 -90.7 26.9 -89.7 22.9 -89.7 22.9 -90.7 M18.9 -89.7 L14.9 -89.7 14.9 -90.7 18.9 -90.7 18.9 -89.7" fill="#c9aa75" fill-rule="evenodd" stroke="none"/>
  </g>
</svg>
