<?xml version="1.0" encoding="UTF-8" standalone="no"?>
<svg xmlns:ffdec="https://www.free-decompiler.com/flash" xmlns:xlink="http://www.w3.org/1999/xlink" ffdec:objectType="shape" height="75.4px" width="140.85px" xmlns="http://www.w3.org/2000/svg">
  <g transform="matrix(1.0, 0.0, 0.0, 1.0, 0.0, 112.0)">
    <path d="M3.65 -102.3 Q3.65 -104.8 5.4 -106.6 7.2 -108.4 9.7 -108.4 L134.75 -108.4 Q137.25 -108.4 139.05 -106.6 140.85 -104.8 140.85 -102.3 L140.85 -60.5 Q140.85 -58.0 139.05 -56.2 137.25 -54.4 134.75 -54.4 L78.75 -54.4 69.2 -37.45 66.25 -54.4 9.7 -54.4 Q7.2 -54.4 5.4 -56.2 3.65 -58.0 3.65 -60.5 L3.65 -102.3" fill="#453d28" fill-opacity="0.49803922" fill-rule="evenodd" stroke="none"/>
    <path d="M6.1 -110.5 L131.1 -110.5 Q133.0 -110.5 134.35 -109.15 135.7 -107.85 135.7 -105.95 L135.7 -64.1 Q135.7 -62.2 134.35 -60.9 133.0 -59.55 131.1 -59.55 L6.1 -59.55 Q4.2 -59.55 2.85 -60.9 1.5 -62.2 1.5 -64.1 L1.5 -105.95 Q1.5 -107.85 2.85 -109.15 4.2 -110.5 6.1 -110.5" fill="#f0e1c4" fill-rule="evenodd" stroke="none"/>
    <path d="M63.8 -61.0 L73.9 -61.0 68.9 -36.75 63.8 -61.0" fill="#f0e1c4" fill-rule="evenodd" stroke="none"/>
    <path d="M6.1 -110.5 Q4.2 -110.5 2.85 -109.15 1.5 -107.85 1.5 -105.95 L1.5 -64.1 Q1.5 -62.2 2.85 -60.9 4.2 -59.55 6.1 -59.55 L63.95 -59.55 68.9 -36.75 73.75 -59.55 131.1 -59.55 Q133.0 -59.55 134.35 -60.9 135.7 -62.2 135.7 -64.1 L135.7 -105.95 Q135.7 -107.85 134.35 -109.15 133.0 -110.5 131.1 -110.5 L6.1 -110.5 M0.0 -105.95 Q0.0 -108.45 1.8 -110.25 3.6 -112.0 6.1 -112.0 L131.1 -112.0 Q133.6 -112.0 135.4 -110.25 137.2 -108.45 137.2 -105.95 L137.2 -64.1 Q137.2 -61.6 135.4 -59.8 133.6 -58.05 131.1 -58.05 L75.1 -58.05 68.9 -36.6 62.6 -58.05 6.1 -58.05 Q3.6 -58.05 1.8 -59.8 0.0 -61.6 0.0 -64.1 L0.0 -105.95" fill="#453d28" fill-rule="evenodd" stroke="none"/>
    <path d="M73.75 -59.55 L75.1 -58.05 66.8 -59.55 73.75 -59.55" fill="#453d28" fill-rule="evenodd" stroke="none"/>
    <path d="M94.9 -78.65 L98.9 -78.65 98.9 -77.65 94.9 -77.65 94.9 -78.65 M90.9 -77.65 L86.9 -77.65 86.9 -78.65 90.9 -78.65 90.9 -77.65 M102.9 -77.65 L102.9 -78.65 106.9 -78.65 106.9 -77.65 102.9 -77.65 M70.9 -77.65 L70.9 -78.65 74.9 -78.65 74.9 -77.65 70.9 -77.65 M78.9 -78.65 L82.9 -78.65 82.9 -77.65 78.9 -77.65 78.9 -78.65 M54.9 -78.65 L58.9 -78.65 58.9 -77.65 54.9 -77.65 54.9 -78.65 M50.9 -77.65 L46.9 -77.65 46.9 -78.65 50.9 -78.65 50.9 -77.65 M62.9 -77.65 L62.9 -78.65 66.9 -78.65 66.9 -77.65 62.9 -77.65 M30.9 -77.65 L30.9 -78.65 34.9 -78.65 34.9 -77.65 30.9 -77.65 M38.9 -78.65 L42.9 -78.65 42.9 -77.65 38.9 -77.65 38.9 -78.65 M114.9 -77.65 L110.9 -77.65 110.9 -78.65 114.9 -78.65 114.9 -77.65 M118.9 -78.65 L122.9 -78.65 122.9 -77.65 118.9 -77.65 118.9 -78.65 M22.9 -78.65 L26.9 -78.65 26.9 -77.65 22.9 -77.65 22.9 -78.65 M14.9 -78.65 L18.9 -78.65 18.9 -77.65 14.9 -77.65 14.9 -78.65" fill="#c9aa75" fill-rule="evenodd" stroke="none"/>
  </g>
</svg>
