<?xml version="1.0" encoding="UTF-8" standalone="no"?>
<svg xmlns:ffdec="https://www.free-decompiler.com/flash" xmlns:xlink="http://www.w3.org/1999/xlink" ffdec:objectType="shape" height="36.8px" width="21.85px" xmlns="http://www.w3.org/2000/svg">
  <g transform="matrix(1.0, 0.0, 0.0, 1.0, 3.6, 133.35)">
    <path d="M-0.45 -114.55 L-0.65 -114.75 Q-1.8 -115.95 -2.25 -117.65 -2.95 -120.5 -1.3 -123.05 0.3 -125.6 3.35 -126.4 6.4 -127.15 9.05 -125.7 11.75 -124.2 12.45 -121.4 12.9 -119.75 12.4 -118.05 L12.4 -117.95 12.35 -117.8 Q12.0 -116.55 12.65 -115.15 13.05 -114.25 14.45 -112.3 L14.5 -112.3 Q16.1 -110.4 16.75 -107.9 17.6 -104.5 16.4 -101.5 15.65 -99.65 10.5 -98.3 5.3 -96.95 3.8 -98.25 1.25 -100.3 0.35 -103.75 -0.25 -106.35 0.3 -108.75 L0.55 -112.1 Q0.45 -113.6 -0.45 -114.55" fill="#83b2cf" fill-rule="evenodd" stroke="none"/>
    <path d="M0.55 -124.95 L6.5 -126.65 7.0 -126.45 6.6 -126.0 Q5.85 -125.45 4.0 -124.9 L0.05 -124.65 0.55 -124.95" fill="#307eae" fill-rule="evenodd" stroke="none"/>
    <path d="M-0.15 -125.2 Q-1.2 -127.8 -0.75 -128.05 L0.85 -128.6 2.8 -129.1 4.5 -129.6 6.0 -129.9 Q6.45 -129.9 6.75 -128.55 L7.0 -127.05 Q7.1 -126.65 6.15 -126.1 5.15 -125.55 3.65 -125.2 L1.05 -124.8 Q-0.05 -124.8 -0.15 -125.2" fill="#ab3822" fill-rule="evenodd" stroke="none"/>
    <path d="M-0.15 -125.2 L2.7 -125.35 Q4.85 -125.9 4.95 -126.8 5.15 -128.3 3.6 -128.75 2.65 -129.05 2.8 -129.1 L4.5 -129.6 6.0 -129.9 Q6.45 -129.9 6.75 -128.55 L7.0 -127.05 Q7.1 -126.65 6.15 -126.1 5.15 -125.55 3.65 -125.2 L1.05 -124.8 Q-0.05 -124.8 -0.15 -125.2" fill="#85200d" fill-rule="evenodd" stroke="none"/>
    <path d="M6.35 -129.6 Q6.45 -129.2 5.5 -128.65 L3.0 -127.75 0.4 -127.4 Q-0.7 -127.4 -0.8 -127.8 -0.9 -128.15 0.05 -128.7 L2.55 -129.6 5.15 -129.95 Q6.3 -129.95 6.35 -129.6" fill="#dd5f46" fill-rule="evenodd" stroke="none"/>
    <path d="M3.45 -126.5 L3.15 -127.8 3.6 -126.55 3.8 -125.25 3.45 -126.5" fill="#85200d" fill-rule="evenodd" stroke="none"/>
    <path d="M3.5 -126.5 L3.8 -125.25 Q3.65 -125.1 3.25 -126.45 2.95 -127.8 3.15 -127.8 L3.5 -126.5" fill="#dd5f46" fill-rule="evenodd" stroke="none"/>
    <path d="M1.95 -126.2 L1.65 -127.5 2.1 -126.25 2.3 -124.95 1.95 -126.2" fill="#85200d" fill-rule="evenodd" stroke="none"/>
    <path d="M1.95 -126.25 L2.3 -124.95 Q2.1 -124.95 1.75 -126.2 1.45 -127.5 1.65 -127.5 L1.95 -126.25" fill="#dd5f46" fill-rule="evenodd" stroke="none"/>
    <path d="M4.95 -127.0 L4.65 -128.25 5.1 -127.0 5.3 -125.7 4.95 -127.0" fill="#85200d" fill-rule="evenodd" stroke="none"/>
    <path d="M4.95 -127.0 L5.3 -125.7 Q5.1 -125.7 4.75 -126.95 4.45 -128.25 4.65 -128.25 L4.95 -127.0" fill="#dd5f46" fill-rule="evenodd" stroke="none"/>
    <path d="M0.65 -126.15 L0.4 -127.4 0.85 -126.2 1.05 -124.85 0.65 -126.15" fill="#85200d" fill-rule="evenodd" stroke="none"/>
    <path d="M0.7 -126.15 L1.05 -124.85 Q0.85 -124.85 0.5 -126.1 0.2 -127.4 0.4 -127.4 L0.7 -126.15" fill="#dd5f46" fill-rule="evenodd" stroke="none"/>
    <path d="M0.0 -126.2 L-0.25 -127.5 0.2 -126.25 0.35 -124.95 0.0 -126.2" fill="#85200d" fill-rule="evenodd" stroke="none"/>
    <path d="M0.05 -126.2 L0.35 -124.95 0.15 -125.25 -0.15 -126.15 Q-0.5 -127.3 -0.3 -127.5 L0.05 -126.2" fill="#dd5f46" fill-rule="evenodd" stroke="none"/>
    <path d="M6.3 -126.2 L5.7 -128.75 6.15 -127.5 6.3 -126.2" fill="#85200d" fill-rule="evenodd" stroke="none"/>
    <path d="M6.0 -127.5 L6.3 -126.2 Q6.05 -126.2 5.8 -127.45 5.45 -128.75 5.65 -128.75 L6.0 -127.5" fill="#dd5f46" fill-rule="evenodd" stroke="none"/>
    <path d="M0.85 -131.55 Q0.95 -131.8 1.8 -132.05 L3.0 -132.1 3.05 -131.55 Q3.0 -131.1 3.2 -131.05 4.75 -131.05 4.35 -130.6 4.1 -130.3 4.45 -129.8 L4.8 -129.2 Q4.25 -128.55 2.6 -128.15 0.9 -127.7 0.6 -128.15 0.5 -128.3 0.55 -128.85 0.6 -129.35 0.25 -129.5 -0.15 -129.7 0.35 -130.05 L1.1 -130.6 1.0 -131.05 0.85 -131.55" fill="#ab3822" fill-rule="evenodd" stroke="none"/>
    <path d="M1.35 -130.7 L2.15 -131.0 Q2.6 -131.25 2.25 -131.7 1.9 -132.15 2.95 -132.15 L3.05 -131.7 Q3.05 -131.1 3.2 -131.05 L3.6 -131.05 3.4 -130.8 Q3.1 -130.55 2.45 -130.45 L1.35 -130.4 Q1.0 -130.55 1.35 -130.7" fill="#85200d" fill-rule="evenodd" stroke="none"/>
    <path d="M3.0 -132.1 Q3.1 -131.8 2.0 -131.55 0.95 -131.3 0.85 -131.55 0.75 -131.85 1.85 -132.1 2.9 -132.35 3.0 -132.1" fill="#dd5f46" fill-rule="evenodd" stroke="none"/>
    <path d="M0.65 -130.1 L1.05 -130.25 1.55 -130.15 2.55 -130.3 3.25 -130.4 Q3.4 -130.05 1.65 -129.7 0.7 -129.55 0.5 -129.7 0.35 -129.8 0.65 -130.1" fill="#dd5f46" fill-rule="evenodd" stroke="none"/>
    <path d="M4.0 -130.4 Q4.5 -130.75 4.25 -130.95 L4.4 -130.85 4.35 -130.6 4.3 -130.1 4.75 -129.45 4.75 -129.15 4.15 -128.75 3.05 -128.25 2.45 -128.1 2.55 -128.3 2.5 -128.95 1.6 -129.25 0.7 -129.25 1.65 -129.5 Q3.0 -129.7 4.0 -130.4" fill="#85200d" fill-rule="evenodd" stroke="none"/>
    <path d="M3.6 -130.45 L3.5 -130.3 3.35 -130.4 3.45 -130.55 3.6 -130.45" fill="#dd5f46" fill-rule="evenodd" stroke="none"/>
    <path d="M2.65 -132.0 Q2.65 -131.9 2.0 -131.7 L1.3 -131.65 1.95 -131.95 2.65 -132.0" fill="#453d28" fill-rule="evenodd" stroke="none"/>
    <path d="M0.8 -130.0 L1.85 -130.1 2.7 -130.2 2.3 -130.0 1.05 -129.75 Q0.45 -129.75 0.8 -130.0" fill="#ffffff" fill-rule="evenodd" stroke="none"/>
    <path d="M-0.8 -127.8 Q-0.35 -127.3 0.7 -127.4 L3.0 -127.75 0.5 -127.2 Q-0.75 -127.1 -0.8 -127.8" fill="#ffffff" fill-rule="evenodd" stroke="none"/>
    <path d="M-0.4 -122.55 Q0.55 -123.7 3.7 -124.55 L9.0 -124.7 Q10.55 -124.1 11.3 -122.5 12.0 -121.1 11.7 -119.85 L11.3 -118.1 11.25 -116.65 Q11.4 -115.95 11.85 -115.1 L12.25 -114.4 11.5 -114.8 Q10.7 -115.45 10.35 -116.45 L9.7 -119.4 Q9.25 -121.35 8.3 -121.95 L5.15 -121.85 Q3.15 -121.05 2.7 -119.9 2.3 -118.65 2.65 -117.6 3.05 -116.4 4.4 -115.75 L2.95 -115.95 Q1.25 -116.4 0.0 -117.45 -2.55 -119.6 -0.4 -122.55" fill="#a5c7dc" fill-rule="evenodd" stroke="none"/>
    <path d="M-0.5 -121.8 Q0.3 -123.1 1.2 -122.25 2.0 -121.4 2.0 -120.15 2.0 -118.95 1.55 -118.15 1.0 -117.15 0.15 -117.65 -0.75 -118.15 -0.9 -119.6 -1.05 -120.95 -0.5 -121.8" fill="#c9ddea" fill-rule="evenodd" stroke="none"/>
    <path d="M1.45 -123.2 Q2.4 -123.75 2.85 -122.95 3.3 -122.15 2.45 -121.95 1.7 -121.8 1.4 -122.4 1.1 -123.0 1.45 -123.2" fill="#c9ddea" fill-rule="evenodd" stroke="none"/>
    <path d="M10.95 -122.2 Q11.4 -121.8 11.5 -121.05 11.55 -120.25 10.95 -120.2 10.3 -120.15 10.15 -121.55 10.05 -122.95 10.95 -122.2" fill="#c9ddea" fill-rule="evenodd" stroke="none"/>
    <path d="M1.35 -111.9 L3.25 -111.55 Q4.1 -109.2 3.9 -107.75 3.7 -105.85 2.4 -105.7 1.1 -105.5 1.1 -106.65 L1.3 -109.25 1.35 -111.9" fill="#2ea69d" fill-rule="evenodd" stroke="none"/>
    <path d="M10.0 -123.35 L10.25 -123.1 Q10.2 -122.7 9.85 -122.8 9.5 -122.85 9.55 -123.05 L10.0 -123.35" fill="#c9ddea" fill-rule="evenodd" stroke="none"/>
    <path d="M2.8 -110.0 Q3.75 -107.5 2.55 -107.05 1.55 -106.7 1.3 -107.75 1.15 -108.5 1.35 -109.55 1.85 -112.4 2.8 -110.0" fill="#6ebdb6" fill-rule="evenodd" stroke="none"/>
    <path d="M1.4 -109.55 Q1.65 -110.8 2.2 -109.65 2.7 -108.45 2.1 -108.0 L1.4 -108.05 Q1.2 -108.5 1.4 -109.55" fill="#ffffff" fill-rule="evenodd" stroke="none"/>
    <path d="M-0.3 -121.8 Q0.75 -123.05 0.7 -121.4 0.6 -119.6 -0.15 -119.5 -0.75 -119.45 -0.75 -120.35 -0.8 -121.25 -0.3 -121.8" fill="#ffffff" fill-rule="evenodd" stroke="none"/>
    <path d="M1.65 -123.1 Q2.1 -123.45 2.2 -123.0 2.3 -122.55 2.0 -122.45 1.7 -122.4 1.6 -122.65 L1.65 -123.1" fill="#ffffff" fill-rule="evenodd" stroke="none"/>
    <path d="M14.35 -102.35 L14.1 -101.8 Q13.45 -100.55 10.45 -99.7 L7.55 -99.1 10.3 -99.4 10.05 -99.35 Q6.35 -98.75 4.45 -99.3 L4.4 -99.3 Q3.85 -99.45 5.5 -100.3 7.25 -101.2 9.55 -101.85 12.5 -102.7 14.35 -102.35" fill="#1b827b" fill-rule="evenodd" stroke="none"/>
    <path d="M14.35 -102.35 Q15.25 -104.75 14.3 -107.9 14.95 -107.8 15.45 -107.2 15.95 -106.65 16.0 -105.95 L16.1 -104.05 16.05 -103.65 15.4 -101.85 Q15.4 -102.2 14.35 -102.35" fill="#1b827b" fill-rule="evenodd" stroke="none"/>
    <path d="M14.35 -102.35 Q15.4 -102.2 15.4 -101.85 14.65 -100.6 12.55 -99.95 10.1 -99.2 7.55 -99.1 L10.45 -99.7 Q13.45 -100.55 14.1 -101.8 L14.35 -102.35" fill="#096963" fill-rule="evenodd" stroke="none"/>
    <path d="M1.4 -115.9 L1.3 -117.85 Q1.7 -119.95 4.5 -120.85 L8.65 -120.7 9.9 -119.6 8.8 -120.45 4.7 -120.3 Q2.2 -119.5 1.55 -117.65 L1.4 -115.9" fill="#307eae" fill-rule="evenodd" stroke="none"/>
    <path d="M-1.7 -119.85 Q-1.05 -117.65 -0.1 -116.95 L2.85 -115.6 Q4.35 -114.9 4.35 -112.5 L2.95 -112.35 Q2.35 -113.7 1.9 -113.8 1.4 -113.95 1.35 -112.25 L1.35 -112.2 Q1.1 -114.0 0.15 -114.9 -1.1 -116.25 -1.5 -118.2 L-1.7 -119.85" fill="#5b99bf" fill-rule="evenodd" stroke="none"/>
    <path d="M3.25 -111.55 L4.3 -111.5 Q4.1 -108.0 4.6 -106.3 5.45 -103.55 8.3 -104.1 10.85 -104.6 12.15 -106.7 13.05 -108.15 14.3 -107.9 15.25 -104.75 14.35 -102.35 12.5 -102.7 9.55 -101.85 7.25 -101.2 5.5 -100.3 4.2 -99.6 4.3 -99.4 L4.1 -99.5 Q2.95 -100.65 2.1 -102.3 1.0 -104.45 1.05 -106.35 L1.1 -106.65 Q1.1 -105.5 2.4 -105.7 3.7 -105.85 3.9 -107.75 4.1 -109.2 3.25 -111.55" fill="#2a968e" fill-rule="evenodd" stroke="none"/>
    <path d="M1.3 -111.9 L1.35 -111.9 1.3 -109.25 1.1 -106.85 1.3 -111.9" fill="#2ea69d" fill-rule="evenodd" stroke="none"/>
    <path d="M1.35 -112.05 L1.35 -112.25 Q1.4 -113.95 1.9 -113.8 2.35 -113.7 2.95 -112.35 L1.35 -112.05" fill="#a5c7dc" fill-rule="evenodd" stroke="none"/>
    <path d="M13.5 -112.4 L13.7 -112.1 12.45 -112.35 Q10.9 -116.0 11.3 -117.85 L11.55 -116.25 Q12.1 -114.25 13.5 -112.4" fill="#5b99bf" fill-rule="evenodd" stroke="none"/>
    <path d="M12.75 -111.65 L13.8 -111.95 Q15.2 -110.0 15.8 -107.75 16.4 -105.65 16.1 -104.05 L16.0 -105.95 Q15.95 -106.65 15.45 -107.2 14.95 -107.8 14.3 -107.9 L13.35 -110.35 12.75 -111.65" fill="#2a968e" fill-rule="evenodd" stroke="none"/>
    <path d="M7.55 -111.4 L4.3 -111.5 4.35 -112.5 7.55 -112.55 12.45 -112.35 12.75 -111.65 7.55 -111.4" fill="#8fccc7" fill-rule="evenodd" stroke="none"/>
    <path d="M3.25 -111.55 L2.95 -112.35 4.35 -112.5 4.3 -111.5 3.25 -111.55" fill="#2ea69d" fill-rule="evenodd" stroke="none"/>
    <path d="M1.35 -112.05 L1.35 -111.9 1.3 -111.9 1.35 -112.05" fill="#e8e3e2" fill-rule="evenodd" stroke="none"/>
    <path d="M1.35 -112.05 L2.95 -112.35 3.25 -111.55 1.35 -111.9 1.35 -112.05" fill="#6ebdb6" fill-rule="evenodd" stroke="none"/>
    <path d="M13.8 -111.95 L12.75 -111.65 12.45 -112.35 13.7 -112.1 13.8 -111.95" fill="#2ea69d" fill-rule="evenodd" stroke="none"/>
    <path d="M4.3 -111.5 L8.5 -111.4 12.75 -111.65 13.55 -110.0 14.1 -108.65 14.3 -107.9 Q13.5 -108.05 12.8 -107.55 L11.9 -106.4 Q11.2 -105.45 9.75 -104.6 8.1 -103.6 6.6 -104.2 5.25 -104.7 4.65 -106.1 3.95 -107.85 4.3 -111.5" fill="#2ea69d" fill-rule="evenodd" stroke="none"/>
    <path d="M10.2 -117.8 L12.95 -106.9 Q13.15 -106.1 12.75 -105.35 12.3 -104.6 11.5 -104.4 L7.65 -103.45 Q6.8 -103.25 6.1 -103.7 5.4 -104.15 5.15 -104.95 L2.4 -115.85 Q2.2 -116.65 2.6 -117.4 3.0 -118.1 3.85 -118.35 L7.7 -119.3 9.25 -119.05 Q10.0 -118.6 10.2 -117.8" fill="#feefbf" fill-rule="evenodd" stroke="none"/>
    <path d="M10.9 -112.25 Q10.9 -110.85 9.9 -109.9 8.95 -108.9 7.6 -108.9 6.25 -108.9 5.25 -109.9 4.3 -110.85 4.3 -112.25 4.3 -113.6 5.25 -114.6 6.25 -115.55 7.6 -115.55 8.95 -115.55 9.9 -114.6 10.9 -113.6 10.9 -112.25" fill="#6b6242" fill-rule="evenodd" stroke="none"/>
    <path d="M10.3 -112.4 Q10.3 -111.2 9.45 -110.4 8.65 -109.55 7.45 -109.55 6.3 -109.55 5.45 -110.4 4.6 -111.2 4.6 -112.4 4.6 -113.55 5.45 -114.4 6.3 -115.2 7.45 -115.2 8.65 -115.2 9.45 -114.4 10.3 -113.55 10.3 -112.4" fill="#fec60a" fill-rule="evenodd" stroke="none"/>
    <path d="M7.55 -112.4 L8.65 -107.5 Q8.55 -107.5 7.2 -112.3 5.9 -117.15 6.1 -117.15 L7.55 -112.4" fill="#fec60a" fill-rule="evenodd" stroke="none"/>
    <path d="M7.5 -112.25 L2.65 -111.1 7.4 -112.55 12.3 -113.7 Q12.3 -113.5 7.5 -112.25" fill="#fec60a" fill-rule="evenodd" stroke="none"/>
    <path d="M7.55 -112.3 L4.9 -108.05 7.25 -112.45 Q9.75 -116.75 9.9 -116.7 L7.55 -112.3" fill="#fec60a" fill-rule="evenodd" stroke="none"/>
    <path d="M7.55 -112.6 Q11.9 -110.15 11.8 -109.95 11.7 -109.85 7.4 -112.3 3.05 -114.85 3.15 -114.95 L7.55 -112.6" fill="#fec60a" fill-rule="evenodd" stroke="none"/>
    <path d="M7.9 -114.45 Q8.15 -114.1 8.0 -113.6 7.8 -113.05 7.3 -112.65 6.75 -112.25 6.2 -112.2 5.65 -112.15 5.4 -112.45 5.15 -112.8 5.35 -113.3 5.5 -113.85 6.0 -114.25 L7.1 -114.7 Q7.65 -114.8 7.9 -114.45" fill="#feefbf" fill-rule="evenodd" stroke="none"/>
    <path d="M6.45 -112.4 Q6.75 -112.0 6.2 -111.55 L5.3 -111.45 Q5.0 -111.8 5.6 -112.3 L6.45 -112.4" fill="#feefbf" fill-rule="evenodd" stroke="none"/>
    <path d="M7.0 -114.1 Q7.3 -113.7 6.75 -113.25 L5.85 -113.15 Q5.55 -113.5 6.15 -114.0 L7.0 -114.1" fill="#ffffff" fill-rule="evenodd" stroke="none"/>
    <path d="M11.5 -108.15 L11.25 -107.6 10.65 -107.35 Q9.8 -107.35 9.8 -108.15 9.8 -109.0 10.65 -109.0 11.5 -109.0 11.5 -108.15" fill="#fec60a" fill-rule="evenodd" stroke="none"/>
    <path d="M10.25 -106.4 Q10.25 -106.05 9.9 -106.05 9.55 -106.05 9.55 -106.4 9.55 -106.8 9.9 -106.8 10.25 -106.8 10.25 -106.4" fill="#fec60a" fill-rule="evenodd" stroke="none"/>
    <path d="M4.9 -116.9 Q4.9 -116.6 4.55 -116.6 4.2 -116.6 4.2 -116.9 4.2 -117.25 4.55 -117.25 L4.9 -116.9" fill="#fec60a" fill-rule="evenodd" stroke="none"/>
    <path d="M5.85 -118.2 Q5.85 -117.6 5.25 -117.6 4.7 -117.6 4.7 -118.2 4.7 -118.75 5.25 -118.75 5.85 -118.75 5.85 -118.2" fill="#fec60a" fill-rule="evenodd" stroke="none"/>
    <path d="M1.5 -132.0 L1.45 -131.95 1.2 -131.85 1.15 -131.85 0.95 -131.7 0.85 -131.6 0.85 -131.55 1.0 -131.05 1.1 -130.6 0.35 -130.05 Q-0.15 -129.7 0.25 -129.5 L0.55 -128.95 -0.7 -128.1 -0.75 -128.05 Q-1.2 -127.8 -0.15 -125.2 -0.05 -124.95 0.35 -124.9 -1.3 -123.55 -2.0 -121.65 -2.75 -119.65 -2.25 -117.65 -1.8 -115.95 -0.65 -114.75 L-0.45 -114.55 Q0.45 -113.6 0.55 -112.1 L0.3 -108.75 Q-0.25 -106.35 0.35 -103.75 1.25 -100.3 3.8 -98.25 4.4 -97.7 6.2 -97.7 9.0 -97.7 12.35 -98.9 15.85 -100.15 16.4 -101.5 17.6 -104.5 16.75 -107.9 16.1 -110.4 14.5 -112.3 L14.45 -112.3 Q13.05 -114.25 12.65 -115.15 12.0 -116.55 12.35 -117.8 L12.4 -117.95 12.4 -118.0 13.5 -117.65 13.45 -117.5 Q13.2 -116.65 13.75 -115.55 L15.4 -113.0 15.4 -112.95 Q17.15 -110.9 17.85 -108.2 18.8 -104.5 17.45 -101.05 16.7 -99.15 12.65 -97.75 9.1 -96.55 6.2 -96.55 4.05 -96.55 3.05 -97.35 0.15 -99.85 -0.75 -103.5 -1.45 -106.25 -0.85 -108.9 L-0.6 -111.9 Q-0.65 -113.1 -1.25 -113.75 L-1.45 -113.9 -1.6 -114.1 Q-2.9 -115.55 -3.35 -117.4 -3.85 -119.35 -3.3 -121.4 -2.75 -123.4 -1.3 -124.95 L-1.35 -125.1 -1.95 -127.2 Q-2.15 -128.35 -1.5 -128.9 L-1.05 -129.35 -1.1 -129.65 Q-1.1 -130.45 -0.25 -131.0 -0.45 -131.45 -0.25 -131.95 L-0.2 -132.1 -0.1 -132.2 0.2 -132.6 0.25 -132.65 0.7 -132.9 1.9 -133.3 2.65 -133.35 3.55 -133.15 3.75 -132.95 4.2 -132.15 4.65 -132.05 5.15 -131.75 5.55 -131.1 6.2 -131.0 6.95 -130.65 7.45 -130.0 8.1 -127.5 8.15 -127.35 Q10.2 -126.65 11.6 -125.15 13.05 -123.65 13.55 -121.65 14.0 -119.75 13.55 -117.8 L13.5 -117.7 12.4 -118.0 12.4 -118.05 Q12.9 -119.75 12.45 -121.4 11.95 -123.35 10.45 -124.7 9.0 -126.05 7.0 -126.45 L6.75 -126.55 7.0 -127.05 6.85 -128.15 6.35 -129.6 6.25 -129.75 6.0 -129.9 5.15 -130.0 4.4 -129.95 4.3 -130.05 4.3 -130.15 4.25 -130.25 4.25 -130.3 4.3 -130.5 4.35 -130.6 4.45 -130.75 4.45 -130.8 4.4 -130.85 4.25 -130.95 3.6 -131.05 3.2 -131.05 3.05 -131.2 3.05 -131.7 3.0 -132.1 3.0 -132.15 2.95 -132.15 2.65 -132.2 2.2 -132.15 2.1 -132.15 1.85 -132.1 1.75 -132.05 1.5 -132.0" fill="#453d28" fill-rule="evenodd" stroke="none"/>
    <path d="M2.6 -124.95 L5.55 -125.85 6.9 -126.7 7.0 -127.05 Q8.8 -127.1 7.85 -126.3 7.3 -125.8 4.8 -125.3 L2.6 -124.95" fill="#453d28" fill-rule="evenodd" stroke="none"/>
  </g>
</svg>
