<?xml version="1.0" encoding="UTF-8" standalone="no"?>
<svg xmlns:ffdec="https://www.free-decompiler.com/flash" xmlns:xlink="http://www.w3.org/1999/xlink" ffdec:objectType="shape" height="77.0px" width="141.1px" xmlns="http://www.w3.org/2000/svg">
  <g transform="matrix(1.0, 0.0, 0.0, 1.0, 0.0, 113.95)">
    <path d="M3.9 -103.95 Q3.9 -106.45 5.7 -108.25 7.5 -110.05 10.0 -110.05 L135.05 -110.05 Q137.55 -110.05 139.35 -108.25 141.1 -106.45 141.1 -103.95 L141.1 -60.55 Q141.1 -58.05 139.35 -56.25 137.55 -54.5 135.05 -54.5 L79.0 -54.5 68.85 -36.95 66.5 -54.5 10.0 -54.5 Q7.5 -54.5 5.7 -56.25 3.9 -58.05 3.9 -60.55 L3.9 -103.95" fill="#453d28" fill-opacity="0.49803922" fill-rule="evenodd" stroke="none"/>
    <path d="M6.1 -112.45 L131.1 -112.45 Q133.0 -112.45 134.35 -111.1 135.7 -109.75 135.7 -107.85 L135.7 -64.45 Q135.7 -62.55 134.35 -61.25 133.0 -59.9 131.1 -59.9 L6.1 -59.9 Q4.2 -59.9 2.85 -61.25 1.5 -62.55 1.5 -64.45 L1.5 -107.85 Q1.5 -109.75 2.85 -111.1 4.2 -112.45 6.1 -112.45" fill="#f0e1c4" fill-rule="evenodd" stroke="none"/>
    <path d="M63.8 -61.35 L73.9 -61.35 68.85 -37.1 63.8 -61.35" fill="#f0e1c4" fill-rule="evenodd" stroke="none"/>
    <path d="M6.1 -112.45 Q4.2 -112.45 2.85 -111.1 1.5 -109.75 1.5 -107.85 L1.5 -64.45 Q1.5 -62.55 2.85 -61.25 4.2 -59.9 6.1 -59.9 L63.95 -59.9 68.85 -37.1 73.75 -59.9 131.1 -59.9 Q133.0 -59.9 134.35 -61.25 135.7 -62.55 135.7 -64.45 L135.7 -107.85 Q135.7 -109.75 134.35 -111.1 133.0 -112.45 131.1 -112.45 L6.1 -112.45 M0.0 -107.85 Q0.0 -110.35 1.8 -112.15 3.6 -113.95 6.1 -113.95 L131.1 -113.95 Q133.6 -113.95 135.4 -112.15 137.2 -110.35 137.2 -107.85 L137.2 -64.45 Q137.2 -61.95 135.4 -60.15 133.6 -58.4 131.1 -58.4 L75.1 -58.4 68.85 -36.95 62.6 -58.4 6.1 -58.4 Q3.6 -58.4 1.8 -60.15 0.0 -61.95 0.0 -64.45 L0.0 -107.85" fill="#453d28" fill-rule="evenodd" stroke="none"/>
    <path d="M73.75 -59.9 L75.1 -58.4 66.8 -59.9 73.75 -59.9" fill="#453d28" fill-rule="evenodd" stroke="none"/>
  </g>
</svg>
