<?xml version="1.0" encoding="UTF-8" standalone="no"?>
<svg xmlns:ffdec="https://www.free-decompiler.com/flash" xmlns:xlink="http://www.w3.org/1999/xlink" ffdec:objectType="shape" height="100.7px" width="141.2px" xmlns="http://www.w3.org/2000/svg">
  <g transform="matrix(1.0, 0.0, 0.0, 1.0, 0.0, 160.6)">
    <path d="M4.0 -150.5 Q4.0 -153.0 5.8 -154.8 7.6 -156.6 10.1 -156.6 L135.1 -156.6 Q137.6 -156.6 139.4 -154.8 141.2 -153.0 141.2 -150.5 L141.2 -83.45 Q141.2 -80.95 139.4 -79.15 137.6 -77.35 135.1 -77.35 L79.1 -77.35 68.85 -59.9 66.6 -77.35 10.1 -77.35 Q7.6 -77.35 5.8 -79.15 4.0 -80.95 4.0 -83.45 L4.0 -150.5" fill="#453d28" fill-opacity="0.49803922" fill-rule="evenodd" stroke="none"/>
    <path d="M63.8 -84.3 L73.9 -84.3 68.85 -60.05 63.8 -84.3" fill="#f0e1c4" fill-rule="evenodd" stroke="none"/>
    <path d="M2.85 -157.75 Q4.2 -159.1 6.1 -159.1 L131.1 -159.1 Q133.0 -159.1 134.35 -157.75 135.7 -156.4 135.7 -154.5 L135.7 -87.45 Q135.7 -85.55 134.35 -84.2 133.0 -82.85 131.1 -82.85 L6.1 -82.85 Q4.2 -82.85 2.85 -84.2 1.5 -85.55 1.5 -87.45 L1.5 -154.5 Q1.5 -156.4 2.85 -157.75" fill="#f0e1c4" fill-rule="evenodd" stroke="none"/>
    <path d="M0.0 -154.5 Q0.0 -157.0 1.8 -158.8 3.6 -160.6 6.1 -160.6 L131.1 -160.6 Q133.6 -160.6 135.4 -158.8 137.2 -157.0 137.2 -154.5 L137.2 -87.45 Q137.2 -84.95 135.4 -83.15 133.6 -81.35 131.1 -81.35 L75.1 -81.35 68.85 -59.9 62.6 -81.35 6.1 -81.35 Q3.6 -81.35 1.8 -83.15 0.0 -84.95 0.0 -87.45 L0.0 -154.5 M2.85 -157.75 Q1.5 -156.4 1.5 -154.5 L1.5 -87.45 Q1.5 -85.55 2.85 -84.2 4.2 -82.85 6.1 -82.85 L63.95 -82.85 68.85 -60.05 73.75 -82.85 131.1 -82.85 Q133.0 -82.85 134.35 -84.2 135.7 -85.55 135.7 -87.45 L135.7 -154.5 Q135.7 -156.4 134.35 -157.75 133.0 -159.1 131.1 -159.1 L6.1 -159.1 Q4.2 -159.1 2.85 -157.75" fill="#453d28" fill-rule="evenodd" stroke="none"/>
    <path d="M73.75 -82.85 L75.1 -81.35 66.8 -82.9 73.75 -82.85" fill="#453d28" fill-rule="evenodd" stroke="none"/>
    <path d="M114.9 -131.4 L114.9 -130.4 110.9 -130.4 110.9 -131.4 114.9 -131.4 M118.9 -131.4 L122.9 -131.4 122.9 -130.4 118.9 -130.4 118.9 -131.4 M50.9 -130.4 L46.9 -130.4 46.9 -131.4 50.9 -131.4 50.9 -130.4 M54.9 -131.4 L58.9 -131.4 58.9 -130.4 54.9 -130.4 54.9 -131.4 M66.9 -130.4 L62.9 -130.4 62.9 -131.4 66.9 -131.4 66.9 -130.4 M34.9 -131.4 L34.9 -130.4 30.9 -130.4 30.9 -131.4 34.9 -131.4 M38.9 -130.4 L38.9 -131.4 42.9 -131.4 42.9 -130.4 38.9 -130.4 M94.9 -130.4 L94.9 -131.4 98.9 -131.4 98.9 -130.4 94.9 -130.4 M90.9 -130.4 L86.9 -130.4 86.9 -131.4 90.9 -131.4 90.9 -130.4 M106.9 -131.4 L106.9 -130.4 102.9 -130.4 102.9 -131.4 106.9 -131.4 M74.9 -131.4 L74.9 -130.4 70.9 -130.4 70.9 -131.4 74.9 -131.4 M78.9 -131.4 L82.9 -131.4 82.9 -130.4 78.9 -130.4 78.9 -131.4 M14.9 -131.4 L18.9 -131.4 18.9 -130.4 14.9 -130.4 14.9 -131.4 M22.9 -130.4 L22.9 -131.4 26.9 -131.4 26.9 -130.4 22.9 -130.4" fill="#c9aa75" fill-rule="evenodd" stroke="none"/>
  </g>
</svg>
