<?xml version="1.0" encoding="UTF-8" standalone="no"?>
<svg xmlns:ffdec="https://www.free-decompiler.com/flash" xmlns:xlink="http://www.w3.org/1999/xlink" ffdec:objectType="shape" height="30.0px" width="126.2px" xmlns="http://www.w3.org/2000/svg">
  <g transform="matrix(1.0, 0.0, 0.0, 1.0, 63.1, 15.2)">
    <path d="M53.9 -13.7 Q57.1 -13.7 59.35 -11.45 61.6 -9.25 61.6 -6.05 61.6 -2.85 59.35 -0.65 57.1 1.6 53.9 1.6 L-53.9 1.6 Q-57.1 1.6 -59.35 -0.65 -61.6 -2.85 -61.6 -6.05 -61.6 -9.25 -59.35 -11.45 -57.1 -13.7 -53.9 -13.7 L53.9 -13.7" fill="#bab7a7" fill-rule="evenodd" stroke="none"/>
    <path d="M53.9 -15.2 Q57.7 -15.2 60.4 -12.5 63.1 -9.85 63.1 -6.05 63.1 -2.25 60.4 0.4 57.7 3.1 53.9 3.1 L-53.9 3.1 Q-57.7 3.1 -60.4 0.4 -63.1 -2.25 -63.1 -6.05 -63.1 -9.85 -60.4 -12.5 -57.7 -15.2 -53.9 -15.2 L53.9 -15.2 M59.35 -0.65 Q61.6 -2.85 61.6 -6.05 61.6 -9.25 59.35 -11.45 57.1 -13.7 53.9 -13.7 L-53.9 -13.7 Q-57.1 -13.7 -59.35 -11.45 -61.6 -9.25 -61.6 -6.05 -61.6 -2.85 -59.35 -0.65 -57.1 1.6 -53.9 1.6 L53.9 1.6 Q57.1 1.6 59.35 -0.65" fill="#453d28" fill-rule="evenodd" stroke="none"/>
    <path d="M54.5 -11.9 Q57.25 -11.9 59.2 -9.9 61.15 -7.95 61.15 -5.15 61.15 -2.35 59.2 -0.35 57.3 1.6 54.5 1.6 L-53.0 1.6 Q-55.75 1.6 -57.65 -0.35 -59.6 -2.35 -59.6 -5.15 -59.6 -7.95 -57.65 -9.9 -55.75 -11.9 -53.0 -11.9 L54.5 -11.9" fill="#85816e" fill-rule="evenodd" stroke="none"/>
    <path d="M53.85 -11.75 L53.85 1.6 -53.9 1.6 -53.9 -11.75 53.85 -11.75" fill="#5c584a" fill-rule="evenodd" stroke="none"/>
    <path d="M53.85 -10.1 L-53.9 -10.1 -53.9 -11.75 53.85 -11.75 53.85 -10.1" fill="#453d28" fill-rule="evenodd" stroke="none"/>
    <path d="M52.1 -0.25 Q53.35 -0.25 54.2 0.65 55.1 1.5 55.1 2.75 L55.1 11.8 Q55.1 13.05 54.2 13.9 53.35 14.8 52.1 14.8 L-51.9 14.8 Q-53.15 14.8 -54.0 13.9 -54.9 13.05 -54.9 11.8 L-54.9 2.75 Q-54.9 1.5 -54.0 0.65 -53.15 -0.25 -51.9 -0.25 L52.1 -0.25" fill="#453d28" fill-rule="evenodd" stroke="none"/>
  </g>
</svg>
