<?xml version="1.0" encoding="UTF-8" standalone="no"?>
<svg xmlns:ffdec="https://www.free-decompiler.com/flash" xmlns:xlink="http://www.w3.org/1999/xlink" ffdec:objectType="shape" height="14.65px" width="114.9px" xmlns="http://www.w3.org/2000/svg">
  <g transform="matrix(1.0, 0.0, 0.0, 1.0, 60.1, 12.8)">
    <path d="M54.55 -8.5 L54.8 1.85 53.2 1.85 Q53.2 -4.25 53.45 -8.5 53.65 -12.8 54.0 -12.8 54.35 -12.8 54.55 -8.5" fill="#453d28" fill-rule="evenodd" stroke="none"/>
    <path d="M-54.3 -8.85 L-53.2 -8.85 Q-52.9 -4.8 -52.9 1.85 L-54.55 1.85 -54.3 -8.85" fill="#453d28" fill-rule="evenodd" stroke="none"/>
    <path d="M-53.75 -12.8 Q-53.6 -12.8 -53.35 -11.2 L-54.1 -11.2 -53.75 -12.8" fill="#453d28" fill-rule="evenodd" stroke="none"/>
    <path d="M-0.45 -8.85 L0.7 -8.85 0.95 1.85 -0.7 1.85 -0.45 -8.85" fill="#453d28" fill-rule="evenodd" stroke="none"/>
    <path d="M0.15 -12.8 L0.5 -11.2 -0.25 -11.2 Q-0.1 -12.8 0.15 -12.8" fill="#453d28" fill-rule="evenodd" stroke="none"/>
    <path d="M-26.8 -12.8 Q-26.6 -12.8 -26.45 -11.2 L-27.15 -11.2 -26.8 -12.8" fill="#453d28" fill-rule="evenodd" stroke="none"/>
    <path d="M-27.35 -8.85 L-26.25 -8.85 Q-26.0 -4.35 -26.0 1.85 L-27.6 1.85 -27.35 -8.85" fill="#453d28" fill-rule="evenodd" stroke="none"/>
    <path d="M27.05 -12.8 L27.4 -11.2 26.7 -11.2 Q26.85 -12.8 27.05 -12.8" fill="#453d28" fill-rule="evenodd" stroke="none"/>
    <path d="M26.5 -8.85 L27.6 -8.85 27.85 1.85 26.25 1.85 Q26.25 -4.35 26.5 -8.85" fill="#453d28" fill-rule="evenodd" stroke="none"/>
    <path d="M-56.0 -11.2 L-54.1 -11.2 -54.3 -8.85 -56.0 -8.85 Q-56.5 -8.85 -56.85 -9.2 L-57.2 -10.0 Q-57.2 -10.5 -56.85 -10.85 -56.5 -11.2 -56.0 -11.2" fill="#bab7a7" fill-rule="evenodd" stroke="none"/>
    <path d="M-26.45 -11.2 L-0.25 -11.2 -0.45 -8.85 -26.25 -8.85 -26.45 -11.2" fill="#ffffff" fill-opacity="0.49803922" fill-rule="evenodd" stroke="none"/>
    <path d="M0.7 -8.85 L0.5 -11.2 26.7 -11.2 26.5 -8.85 0.7 -8.85" fill="#ffffff" fill-opacity="0.49803922" fill-rule="evenodd" stroke="none"/>
    <path d="M50.1 -11.2 L51.45 -10.85 Q52.0 -10.5 52.0 -10.0 52.0 -9.5 51.45 -9.2 50.9 -8.85 50.1 -8.85 L27.7 -8.85 27.4 -11.2 50.1 -11.2" fill="#ffffff" fill-opacity="0.49803922" fill-rule="evenodd" stroke="none"/>
    <path d="M-53.35 -11.2 L-27.15 -11.2 -27.35 -8.85 -53.2 -8.85 -53.35 -11.2" fill="#ffffff" fill-opacity="0.49803922" fill-rule="evenodd" stroke="none"/>
    <path d="M-54.1 -11.2 L-53.35 -11.2 -53.2 -8.85 -54.3 -8.85 -54.1 -11.2" fill="#bab7a7" fill-rule="evenodd" stroke="none"/>
    <path d="M0.5 -11.2 L0.7 -8.85 -0.45 -8.85 -0.25 -11.2 0.5 -11.2" fill="#bab7a7" fill-rule="evenodd" stroke="none"/>
    <path d="M-27.15 -11.2 L-26.45 -11.2 -26.25 -8.85 -27.35 -8.85 -27.15 -11.2" fill="#bab7a7" fill-rule="evenodd" stroke="none"/>
    <path d="M26.7 -11.2 L27.4 -11.2 27.6 -8.85 26.5 -8.85 26.7 -11.2" fill="#bab7a7" fill-rule="evenodd" stroke="none"/>
    <path d="M-59.15 -2.6 Q-59.65 -3.3 -59.95 -4.5 -60.45 -6.8 -59.15 -9.1 -57.85 -11.35 -54.1 -11.85 L-50.65 -11.9 -53.9 -11.6 Q-57.35 -10.85 -58.5 -8.55 -59.6 -6.35 -59.5 -4.25 L-59.15 -2.6" fill="#ffffff" fill-rule="evenodd" stroke="none"/>
    <path d="M-55.45 -10.15 Q-55.1 -9.65 -55.35 -8.95 -55.6 -8.25 -56.3 -7.7 -57.05 -7.2 -57.8 -7.15 -58.55 -7.1 -58.9 -7.55 -59.25 -8.05 -59.0 -8.75 L-58.05 -10.0 Q-57.3 -10.55 -56.55 -10.6 -55.8 -10.65 -55.45 -10.15" fill="#ffffff" fill-rule="evenodd" stroke="none"/>
  </g>
</svg>
