<?xml version="1.0" encoding="UTF-8" standalone="no"?>
<svg xmlns:ffdec="https://www.free-decompiler.com/flash" xmlns:xlink="http://www.w3.org/1999/xlink" ffdec:objectType="shape" height="68.35px" width="141.1px" xmlns="http://www.w3.org/2000/svg">
  <g transform="matrix(1.0, 0.0, 0.0, 1.0, 0.0, 104.25)">
    <path d="M3.9 -94.25 Q3.9 -96.75 5.7 -98.55 7.5 -100.3 10.0 -100.3 L135.05 -100.3 Q137.55 -100.3 139.35 -98.55 141.1 -96.75 141.1 -94.25 L141.1 -59.5 Q141.1 -57.0 139.35 -55.2 137.55 -53.4 135.05 -53.4 L79.0 -53.4 68.85 -36.05 66.5 -53.4 10.0 -53.4 Q7.5 -53.4 5.7 -55.2 3.9 -57.0 3.9 -59.5 L3.9 -94.25" fill="#453d28" fill-opacity="0.49803922" fill-rule="evenodd" stroke="none"/>
    <path d="M6.1 -102.75 L131.1 -102.75 Q133.0 -102.75 134.35 -101.4 135.7 -100.05 135.7 -98.15 L135.7 -63.4 Q135.7 -61.5 134.35 -60.2 133.0 -58.85 131.1 -58.85 L6.1 -58.85 Q4.2 -58.85 2.85 -60.2 1.5 -61.5 1.5 -63.4 L1.5 -98.15 Q1.5 -100.05 2.85 -101.4 4.2 -102.75 6.1 -102.75" fill="#f0e1c4" fill-rule="evenodd" stroke="none"/>
    <path d="M63.8 -60.3 L73.9 -60.3 68.85 -36.05 63.8 -60.3" fill="#f0e1c4" fill-rule="evenodd" stroke="none"/>
    <path d="M0.0 -98.15 Q0.0 -100.65 1.8 -102.45 3.6 -104.25 6.1 -104.25 L131.1 -104.25 Q133.6 -104.25 135.4 -102.45 137.2 -100.65 137.2 -98.15 L137.2 -63.4 Q137.2 -60.9 135.4 -59.1 133.6 -57.35 131.1 -57.35 L75.1 -57.35 68.85 -35.9 62.6 -57.35 6.1 -57.35 Q3.6 -57.35 1.8 -59.1 0.0 -60.9 0.0 -63.4 L0.0 -98.15 M6.1 -102.75 Q4.2 -102.75 2.85 -101.4 1.5 -100.05 1.5 -98.15 L1.5 -63.4 Q1.5 -61.5 2.85 -60.2 4.2 -58.85 6.1 -58.85 L63.95 -58.85 68.85 -36.05 73.75 -58.85 131.1 -58.85 Q133.0 -58.85 134.35 -60.2 135.7 -61.5 135.7 -63.4 L135.7 -98.15 Q135.7 -100.05 134.35 -101.4 133.0 -102.75 131.1 -102.75 L6.1 -102.75" fill="#453d28" fill-rule="evenodd" stroke="none"/>
    <path d="M73.75 -58.85 L75.1 -57.35 66.8 -58.85 73.75 -58.85" fill="#453d28" fill-rule="evenodd" stroke="none"/>
  </g>
</svg>
